<svg width="800" height="800" viewBox="0 0 32 32" fill="none" xmlns="http://www.w3.org/2000/svg"><g clip-path="url(#a)"><path clip-rule="evenodd" d="m17.216 2.022 3.958 9.842s7.632.679 8.781.775c1.26.08 1.358 1.64.541 2.276l-6.735 5.226s1.8 7.297 2.322 9.285c.49 1.873-1.013 1.823-1.927 1.184-1.035-.721-8.155-5.813-8.155-5.813s-7.176 5.13-8.164 5.82c-.85.592-2.437.72-1.797-1.163.465-1.59 2.715-9.313 2.715-9.313s-6.576-4.812-7.274-5.35c-.702-.535-.724-2.031.528-2.138l9.334-.79s3.132-8.673 3.553-9.82c.408-1.371 1.767-1.402 2.32-.021z" stroke="#f9995d" stroke-width="2" stroke-linecap="round" stroke-linejoin="round"/></g><defs><clipPath id="a"><path fill="#fff" d="M0 0h32v32H0z"/></clipPath></defs></svg>